<?xml version="1.0" encoding="UTF-8" standalone="no"?>
<!DOCTYPE svg PUBLIC "-//W3C//DTD SVG 1.1//EN" "http://www.w3.org/Graphics/SVG/1.1/DTD/svg11.dtd">
<svg width="100%" height="100%" viewBox="0 0 2901 399" version="1.1" xmlns="http://www.w3.org/2000/svg" xmlns:xlink="http://www.w3.org/1999/xlink" xml:space="preserve" xmlns:serif="http://www.serif.com/" style="fill-rule:evenodd;clip-rule:evenodd;stroke-linejoin:round;stroke-miterlimit:2;">
    <rect id="full-logo-v2-converted" serif:id="full logo v2 converted" x="0.174" y="0" width="2900" height="398.96" style="fill:white;"/>
    <g id="white">
        <path d="M344.936,263.208C344.562,263.159 343.461,263.168 343.132,262.847C340.553,260.336 335.167,247.615 342.05,246.975C349.904,246.244 359.815,256.166 362.431,262.847C368.363,277.995 358.128,276.724 352.692,271.144C341.087,259.233 344.918,245.532 350.347,245.532" style="fill:none;stroke:rgb(39,39,42);stroke-width:2px;stroke-linecap:round;stroke-miterlimit:1.5;"/>
        <path d="M347.1,242.212C346.619,242.332 346.127,242.416 345.657,242.573C345.543,242.611 351.238,242.952 350.166,238.785C349.593,236.556 346.523,235.431 345.838,233.374C345.195,231.447 347.52,230.163 346.92,228.143C345.791,224.347 342.945,222.989 343.853,218.584C344.796,214.011 351.859,215.814 350.852,221.857C350.174,225.926 344.84,221.062 343.753,220.076C332.836,210.161 326.335,194.837 331.769,193.332C341.779,190.559 363.195,211.616 357.561,215.698" style="fill:none;stroke:rgb(39,39,42);stroke-width:2px;stroke-linecap:round;stroke-miterlimit:1.5;"/>
        <path d="M342.411,199.464C345.445,185.168 351.352,194.053 349.986,194.053" style="fill:none;stroke:rgb(39,39,42);stroke-width:2px;stroke-linecap:round;stroke-miterlimit:1.5;"/>
        <path d="M345.477,188.462C344.832,184.779 350.169,188.094 349.265,186.478C341.835,173.204 353.948,184.213 347.063,159.78C345.991,155.974 343.746,160.896 344.682,160.925C350.874,161.122 350.231,129.349 350.188,126.378C350.166,124.865 349.208,124.472 348.564,125.837" style="fill:none;stroke:rgb(39,39,42);stroke-width:2px;stroke-linecap:round;stroke-miterlimit:1.5;"/>
    </g>
    <g>
        <path d="M160.995,168.682C160.995,162.678 159.871,157.048 157.623,151.794C155.374,146.358 152.189,141.862 148.255,137.927C144.321,133.806 139.637,130.808 134.202,128.372C128.763,126.124 123.138,125 117.324,125L36.124,125L61.065,150.105L117.324,150.105C119.762,150.105 122.2,150.481 124.45,151.419C126.888,152.357 128.951,153.671 130.639,155.547C132.327,157.236 133.639,159.3 134.577,161.552C135.514,163.804 136.077,166.243 136.077,168.682C136.077,171.31 135.514,173.749 134.577,176.001C133.639,178.252 132.327,180.317 130.639,182.005C128.951,183.882 126.888,185.195 124.45,186.134C122.2,187.259 119.762,187.635 117.324,187.635L36.124,187.635L36.124,212.553L117.324,212.553C119.95,212.553 122.387,213.116 124.825,214.054C127.076,214.992 128.951,216.493 130.639,218.182C132.327,219.871 133.639,221.935 134.577,224.187C135.514,226.439 136.077,228.878 136.077,231.317C136.077,233.757 135.514,236.196 134.577,238.448C133.639,240.7 132.327,242.764 130.639,244.453C128.951,246.329 126.888,247.643 124.45,248.581C122.2,249.519 119.762,249.895 117.324,249.895L61.065,249.895L61.065,275L117.324,275C123.325,275 128.951,273.876 134.202,271.628C139.637,269.192 144.321,266.194 148.255,262.073C152.189,258.138 155.374,253.642 157.623,248.206C159.871,242.952 160.995,237.322 160.995,231.317C160.995,218.933 156.686,208.431 147.88,200C156.686,191.382 160.995,180.88 160.995,168.682Z" style="fill:rgb(39,39,42);fill-rule:nonzero;"/>
        <path d="M167.77,159.875L242.969,235.437L293.227,185.375L293.227,275L317.957,275L317.957,125L242.969,200L167.77,125L167.77,159.875Z" style="fill:rgb(39,39,42);fill-rule:nonzero;"/>
    </g>
    <g>
        <path d="M430.371,125.209L430.371,191.69C442.465,175.935 457.066,168.058 474.174,168.058C488.815,168.058 501.347,173.369 511.771,183.992C522.195,194.614 527.406,207.644 527.406,223.081C527.406,238.676 522.135,251.885 511.592,262.706C501.049,273.528 488.576,278.939 474.174,278.939C456.669,278.939 442.068,271.061 430.371,255.306L430.371,275L406.858,275C404.471,275 402.76,274.523 401.726,273.568C400.691,272.613 400.174,271.419 400.174,269.987C400.174,268.475 400.691,267.262 401.726,266.347C402.76,265.432 404.471,264.974 406.858,264.974L420.345,264.974L420.345,135.355L406.858,135.355C404.471,135.355 402.76,134.877 401.726,133.922C400.691,132.968 400.174,131.734 400.174,130.222C400.174,128.79 400.691,127.597 401.726,126.642C402.76,125.687 404.471,125.209 406.858,125.209L430.371,125.209ZM517.381,223.558C517.381,210.906 513.044,200.184 504.371,191.392C495.698,182.599 485.553,178.203 473.935,178.203C462.318,178.203 452.173,182.599 443.5,191.392C434.827,200.184 430.49,210.906 430.49,223.558C430.49,236.21 434.827,246.932 443.5,255.724C452.173,264.517 462.318,268.913 473.935,268.913C485.553,268.913 495.698,264.517 504.371,255.724C513.044,246.932 517.381,236.21 517.381,223.558Z" style="fill:rgb(39,39,42);fill-rule:nonzero;"/>
        <path d="M670.871,223.558C670.871,238.835 665.401,251.885 654.46,262.706C643.519,273.528 630.33,278.939 614.894,278.939C599.298,278.939 586.049,273.508 575.148,262.647C564.247,251.785 558.797,238.756 558.797,223.558C558.797,208.281 564.247,195.211 575.148,184.35C586.049,173.489 599.298,168.058 614.894,168.058C630.33,168.058 643.519,173.469 654.46,184.29C665.401,195.112 670.871,208.201 670.871,223.558ZM660.726,223.558C660.726,210.986 656.25,200.284 647.298,191.452C638.347,182.619 627.505,178.203 614.774,178.203C602.043,178.203 591.202,182.639 582.25,191.511C573.298,200.383 568.823,211.066 568.823,223.558C568.823,235.971 573.298,246.633 582.25,255.545C591.202,264.457 602.043,268.913 614.774,268.913C627.505,268.913 638.347,264.477 647.298,255.605C656.25,246.733 660.726,236.05 660.726,223.558Z" style="fill:rgb(39,39,42);fill-rule:nonzero;"/>
        <path d="M810.636,125.209L810.636,264.974L824.004,264.974C826.47,264.974 828.221,265.432 829.255,266.347C830.29,267.262 830.807,268.475 830.807,269.987C830.807,271.419 830.29,272.613 829.255,273.568C828.221,274.523 826.47,275 824.004,275L800.491,275L800.491,255.068C788.873,270.982 774.113,278.939 756.21,278.939C747.139,278.939 738.446,276.532 730.131,271.718C721.816,266.904 715.251,260.041 710.437,251.129C705.623,242.217 703.216,233.027 703.216,223.558C703.216,214.01 705.623,204.799 710.437,195.927C715.251,187.055 721.816,180.192 730.131,175.339C738.446,170.485 747.179,168.058 756.329,168.058C773.835,168.058 788.555,176.015 800.491,191.929L800.491,135.355L787.123,135.355C784.656,135.355 782.906,134.877 781.871,133.922C780.837,132.968 780.32,131.734 780.32,130.222C780.32,128.79 780.837,127.597 781.871,126.642C782.906,125.687 784.656,125.209 787.123,125.209L810.636,125.209ZM800.491,223.558C800.491,210.827 796.194,200.085 787.6,191.332C779.007,182.579 768.782,178.203 756.926,178.203C744.991,178.203 734.726,182.579 726.132,191.332C717.539,200.085 713.242,210.827 713.242,223.558C713.242,236.21 717.539,246.932 726.132,255.724C734.726,264.517 744.991,268.913 756.926,268.913C768.782,268.913 779.007,264.517 787.6,255.724C796.194,246.932 800.491,236.21 800.491,223.558Z" style="fill:rgb(39,39,42);fill-rule:nonzero;"/>
        <path d="M908.865,275L862.316,181.784L859.333,181.784C856.946,181.784 855.235,181.306 854.2,180.351C853.166,179.397 852.649,178.203 852.649,176.771C852.649,175.736 852.907,174.801 853.425,173.966C853.942,173.131 854.618,172.534 855.454,172.176C856.289,171.818 857.582,171.639 859.333,171.639L886.784,171.639C889.171,171.639 890.882,172.116 891.917,173.071C892.951,174.026 893.468,175.259 893.468,176.771C893.468,178.203 892.951,179.397 891.917,180.351C890.882,181.306 889.171,181.784 886.784,181.784L873.297,181.784L914.236,264.019L954.578,181.784L941.091,181.784C938.704,181.784 936.993,181.306 935.959,180.351C934.924,179.397 934.407,178.163 934.407,176.651C934.407,175.219 934.924,174.026 935.959,173.071C936.993,172.116 938.704,171.639 941.091,171.639L968.423,171.639C970.89,171.639 972.64,172.116 973.675,173.071C974.709,174.026 975.226,175.259 975.226,176.771C975.226,177.805 974.908,178.76 974.271,179.635C973.635,180.511 972.919,181.088 972.123,181.366C971.327,181.644 969.099,181.784 965.439,181.784L901.942,311.045L917.578,311.045C919.965,311.045 921.676,311.503 922.71,312.418C923.745,313.333 924.262,314.546 924.262,316.058C924.262,317.49 923.745,318.684 922.71,319.639C921.676,320.594 919.965,321.071 917.578,321.071L859.81,321.071C857.423,321.071 855.712,320.613 854.678,319.698C853.643,318.783 853.126,317.57 853.126,316.058C853.126,314.546 853.643,313.333 854.678,312.418C855.712,311.503 857.423,311.045 859.81,311.045L891.2,311.045L908.865,275Z" style="fill:rgb(39,39,42);fill-rule:nonzero;"/>
        <path d="M1099.95,117.929L1019.27,290.755C1017.92,293.699 1016.17,295.171 1014.02,295.171C1012.66,295.171 1011.49,294.674 1010.5,293.679C1009.5,292.684 1009,291.59 1009,290.397C1009,289.442 1009.4,288.129 1010.2,286.458L1090.76,113.632C1091.64,111.802 1092.47,110.608 1093.27,110.051C1094.06,109.494 1095.02,109.216 1096.13,109.216C1097.49,109.216 1098.66,109.713 1099.65,110.708C1100.65,111.702 1101.15,112.797 1101.15,113.99C1101.15,114.865 1100.75,116.178 1099.95,117.929Z" style="fill:rgb(39,39,42);fill-rule:nonzero;"/>
        <path d="M1155.93,171.639L1155.93,181.784C1164.44,172.633 1173,168.058 1181.59,168.058C1186.76,168.058 1191.3,169.431 1195.2,172.176C1199.1,174.921 1202.36,179.078 1204.99,184.648C1209.44,179.078 1213.96,174.921 1218.53,172.176C1223.11,169.431 1227.7,168.058 1232.32,168.058C1239.56,168.058 1245.33,170.405 1249.62,175.1C1255.27,181.147 1258.1,187.751 1258.1,194.913L1258.1,264.974L1266.57,264.974C1268.96,264.974 1270.67,265.432 1271.7,266.347C1272.74,267.262 1273.26,268.475 1273.26,269.987C1273.26,271.419 1272.74,272.613 1271.7,273.568C1270.67,274.523 1268.96,275 1266.57,275L1248.07,275L1248.07,195.868C1248.07,190.775 1246.52,186.558 1243.42,183.216C1240.31,179.874 1236.73,178.203 1232.67,178.203C1229.02,178.203 1225.16,179.576 1221.1,182.321C1217.04,185.066 1212.42,190.457 1207.25,198.493L1207.25,264.974L1215.61,264.974C1217.99,264.974 1219.7,265.432 1220.74,266.347C1221.77,267.262 1222.29,268.475 1222.29,269.987C1222.29,271.419 1221.77,272.613 1220.74,273.568C1219.7,274.523 1217.99,275 1215.61,275L1197.11,275L1197.11,196.584C1197.11,191.253 1195.54,186.856 1192.39,183.395C1189.25,179.934 1185.73,178.203 1181.83,178.203C1178.25,178.203 1174.71,179.357 1171.21,181.664C1166.35,184.927 1161.26,190.536 1155.93,198.493L1155.93,264.974L1164.4,264.974C1166.79,264.974 1168.5,265.432 1169.54,266.347C1170.57,267.262 1171.09,268.475 1171.09,269.987C1171.09,271.419 1170.57,272.613 1169.54,273.568C1168.5,274.523 1166.79,275 1164.4,275L1137.43,275C1135.04,275 1133.33,274.523 1132.3,273.568C1131.26,272.613 1130.75,271.419 1130.75,269.987C1130.75,268.475 1131.26,267.262 1132.3,266.347C1133.33,265.432 1135.04,264.974 1137.43,264.974L1145.9,264.974L1145.9,181.784L1137.43,181.784C1135.04,181.784 1133.33,181.306 1132.3,180.351C1131.26,179.397 1130.75,178.163 1130.75,176.651C1130.75,175.219 1131.26,174.026 1132.3,173.071C1133.33,172.116 1135.04,171.639 1137.43,171.639L1155.93,171.639Z" style="fill:rgb(39,39,42);fill-rule:nonzero;"/>
        <path d="M1402.52,225.706L1300.35,225.706C1302.1,238.676 1307.53,249.12 1316.64,257.037C1325.75,264.954 1337.03,268.913 1350.48,268.913C1357.96,268.913 1365.8,267.68 1373.99,265.213C1382.19,262.746 1388.87,259.484 1394.04,255.426C1395.56,254.232 1396.87,253.635 1397.98,253.635C1399.26,253.635 1400.37,254.133 1401.32,255.127C1402.28,256.122 1402.76,257.296 1402.76,258.648C1402.76,260.001 1402.12,261.314 1400.85,262.587C1397.03,266.566 1390.24,270.285 1380.5,273.747C1370.75,277.208 1360.74,278.939 1350.48,278.939C1333.29,278.939 1318.95,273.309 1307.45,262.05C1295.95,250.791 1290.2,237.164 1290.2,221.171C1290.2,206.61 1295.6,194.117 1306.38,183.693C1317.16,173.27 1330.51,168.058 1346.42,168.058C1362.81,168.058 1376.3,173.409 1386.88,184.111C1397.46,194.813 1402.68,208.678 1402.52,225.706ZM1392.37,215.561C1390.38,204.501 1385.15,195.51 1376.68,188.587C1368.2,181.664 1358.12,178.203 1346.42,178.203C1334.72,178.203 1324.66,181.625 1316.22,188.468C1307.79,195.311 1302.54,204.342 1300.47,215.561L1392.37,215.561Z" style="fill:rgb(39,39,42);fill-rule:nonzero;"/>
        <path d="M1523.78,275L1523.78,260.558C1509.22,272.812 1493.66,278.939 1477.11,278.939C1465.1,278.939 1455.71,275.895 1448.95,269.808C1442.18,263.721 1438.8,256.261 1438.8,247.429C1438.8,237.721 1443.26,229.247 1452.17,222.006C1461.08,214.766 1474.09,211.145 1491.2,211.145C1495.81,211.145 1500.83,211.443 1506.24,212.04C1511.65,212.637 1517.5,213.572 1523.78,214.845L1523.78,198.613C1523.78,193.122 1521.24,188.348 1516.14,184.29C1511.05,180.232 1503.41,178.203 1493.23,178.203C1485.43,178.203 1474.49,180.471 1460.4,185.006C1457.86,185.802 1456.23,186.2 1455.51,186.2C1454.24,186.2 1453.14,185.722 1452.23,184.768C1451.31,183.813 1450.86,182.619 1450.86,181.187C1450.86,179.834 1451.25,178.76 1452.05,177.964C1453.16,176.771 1457.66,175.14 1465.54,173.071C1477.95,169.729 1487.34,168.058 1493.7,168.058C1506.36,168.058 1516.22,171.181 1523.3,177.427C1530.39,183.674 1533.93,190.735 1533.93,198.613L1533.93,264.974L1547.3,264.974C1549.76,264.974 1551.51,265.432 1552.55,266.347C1553.58,267.262 1554.1,268.475 1554.1,269.987C1554.1,271.419 1553.58,272.613 1552.55,273.568C1551.51,274.523 1549.76,275 1547.3,275L1523.78,275ZM1523.78,225.11C1519.09,223.757 1514.11,222.762 1508.86,222.126C1503.61,221.489 1498.08,221.171 1492.27,221.171C1477.71,221.171 1466.33,224.314 1458.14,230.6C1451.93,235.295 1448.83,240.904 1448.83,247.429C1448.83,253.476 1451.19,258.569 1455.93,262.706C1460.66,266.844 1467.57,268.913 1476.64,268.913C1485.31,268.913 1493.37,267.182 1500.81,263.721C1508.25,260.26 1515.9,254.749 1523.78,247.19L1523.78,225.11Z" style="fill:rgb(39,39,42);fill-rule:nonzero;"/>
        <path d="M1674.77,178.203C1674.77,175.896 1675.24,174.225 1676.2,173.19C1677.15,172.156 1678.35,171.639 1679.78,171.639C1681.29,171.639 1682.52,172.156 1683.48,173.19C1684.43,174.225 1684.91,175.975 1684.91,178.442L1684.91,195.629C1684.91,198.016 1684.43,199.727 1683.48,200.761C1682.52,201.796 1681.29,202.313 1679.78,202.313C1678.43,202.313 1677.29,201.875 1676.38,201C1675.46,200.125 1674.92,198.692 1674.77,196.703C1674.29,191.929 1671.82,187.99 1667.37,184.887C1660.84,180.431 1652.21,178.203 1641.47,178.203C1630.25,178.203 1621.53,180.471 1615.33,185.006C1610.63,188.428 1608.29,192.247 1608.29,196.464C1608.29,201.239 1611.07,205.217 1616.64,208.4C1620.46,210.628 1627.7,212.339 1638.36,213.532C1652.29,215.044 1661.95,216.755 1667.37,218.664C1675.08,221.449 1680.83,225.309 1684.61,230.242C1688.39,235.175 1690.28,240.506 1690.28,246.235C1690.28,254.749 1686.18,262.328 1677.99,268.973C1669.79,275.617 1657.78,278.939 1641.94,278.939C1626.11,278.939 1613.14,274.92 1603.03,266.884C1603.03,269.589 1602.87,271.34 1602.56,272.135C1602.24,272.931 1601.66,273.608 1600.83,274.165C1599.99,274.722 1599.06,275 1598.02,275C1596.59,275 1595.39,274.483 1594.44,273.448C1593.49,272.414 1593.01,270.703 1593.01,268.316L1593.01,247.668C1593.01,245.281 1593.47,243.57 1594.38,242.535C1595.3,241.501 1596.51,240.984 1598.02,240.984C1599.45,240.984 1600.67,241.481 1601.66,242.476C1602.66,243.47 1603.15,244.803 1603.15,246.474C1603.15,250.134 1604.07,253.198 1605.9,255.664C1608.68,259.484 1613.12,262.647 1619.21,265.153C1625.29,267.66 1632.75,268.913 1641.59,268.913C1654.63,268.913 1664.34,266.486 1670.71,261.632C1677.07,256.778 1680.26,251.646 1680.26,246.235C1680.26,240.029 1677.03,235.056 1670.59,231.316C1664.06,227.576 1654.58,225.07 1642.12,223.797C1629.67,222.524 1620.74,220.853 1615.33,218.784C1609.92,216.715 1605.7,213.612 1602.68,209.474C1599.65,205.336 1598.14,200.881 1598.14,196.106C1598.14,187.513 1602.36,180.69 1610.79,175.637C1619.23,170.584 1629.29,168.058 1640.99,168.058C1654.83,168.058 1666.09,171.44 1674.77,178.203Z" style="fill:rgb(39,39,42);fill-rule:nonzero;"/>
        <path d="M1822.65,275L1822.65,260.319C1808.96,272.732 1794.16,278.939 1778.25,278.939C1768.46,278.939 1761.02,276.273 1755.93,270.942C1749.32,263.94 1746.02,255.784 1746.02,246.474L1746.02,181.784L1732.53,181.784C1730.15,181.784 1728.44,181.306 1727.4,180.351C1726.37,179.397 1725.85,178.163 1725.85,176.651C1725.85,175.219 1726.37,174.026 1727.4,173.071C1728.44,172.116 1730.15,171.639 1732.53,171.639L1756.05,171.639L1756.05,246.474C1756.05,252.999 1758.12,258.37 1762.25,262.587C1766.39,266.804 1771.56,268.913 1777.77,268.913C1794.08,268.913 1809.04,261.433 1822.65,246.474L1822.65,181.784L1804.15,181.784C1801.76,181.784 1800.05,181.306 1799.02,180.351C1797.98,179.397 1797.46,178.163 1797.46,176.651C1797.46,175.219 1797.98,174.026 1799.02,173.071C1800.05,172.116 1801.76,171.639 1804.15,171.639L1832.67,171.639L1832.67,264.974L1841.15,264.974C1843.53,264.974 1845.25,265.432 1846.28,266.347C1847.31,267.262 1847.83,268.475 1847.83,269.987C1847.83,271.419 1847.31,272.613 1846.28,273.568C1845.25,274.523 1843.53,275 1841.15,275L1822.65,275Z" style="fill:rgb(39,39,42);fill-rule:nonzero;"/>
        <path d="M1923.02,171.639L1923.02,196.942C1936.07,185.165 1945.84,177.586 1952.33,174.205C1958.81,170.823 1964.8,169.132 1970.29,169.132C1976.26,169.132 1981.81,171.141 1986.94,175.16C1992.07,179.178 1994.64,182.221 1994.64,184.29C1994.64,185.802 1994.14,187.055 1993.14,188.05C1992.15,189.045 1990.9,189.542 1989.39,189.542C1988.59,189.542 1987.91,189.403 1987.36,189.124C1986.8,188.846 1985.77,187.95 1984.25,186.439C1981.47,183.654 1979.04,181.744 1976.97,180.71C1974.9,179.675 1972.88,179.158 1970.89,179.158C1966.51,179.158 1961.24,180.908 1955.07,184.41C1948.9,187.911 1938.22,196.464 1923.02,210.071L1923.02,264.974L1967.42,264.974C1969.89,264.974 1971.64,265.432 1972.68,266.347C1973.71,267.262 1974.23,268.475 1974.23,269.987C1974.23,271.419 1973.71,272.613 1972.68,273.568C1971.64,274.523 1969.89,275 1967.42,275L1888.77,275C1886.38,275 1884.67,274.542 1883.64,273.627C1882.6,272.712 1882.09,271.539 1882.09,270.106C1882.09,268.754 1882.58,267.62 1883.58,266.705C1884.57,265.79 1886.3,265.332 1888.77,265.332L1913,265.332L1913,181.784L1894.5,181.784C1892.11,181.784 1890.4,181.306 1889.37,180.351C1888.33,179.397 1887.82,178.163 1887.82,176.651C1887.82,175.219 1888.31,174.026 1889.31,173.071C1890.3,172.116 1892.03,171.639 1894.5,171.639L1923.02,171.639Z" style="fill:rgb(39,39,42);fill-rule:nonzero;"/>
        <path d="M2135.95,225.706L2033.79,225.706C2035.54,238.676 2040.97,249.12 2050.08,257.037C2059.19,264.954 2070.47,268.913 2083.91,268.913C2091.39,268.913 2099.23,267.68 2107.43,265.213C2115.62,262.746 2122.31,259.484 2127.48,255.426C2128.99,254.232 2130.3,253.635 2131.42,253.635C2132.69,253.635 2133.8,254.133 2134.76,255.127C2135.72,256.122 2136.19,257.296 2136.19,258.648C2136.19,260.001 2135.56,261.314 2134.28,262.587C2130.46,266.566 2123.68,270.285 2113.93,273.747C2104.18,277.208 2094.18,278.939 2083.91,278.939C2066.73,278.939 2052.39,273.309 2040.89,262.05C2029.39,250.791 2023.64,237.164 2023.64,221.171C2023.64,206.61 2029.03,194.117 2039.81,183.693C2050.6,173.27 2063.94,168.058 2079.86,168.058C2096.25,168.058 2109.74,173.409 2120.32,184.111C2130.9,194.813 2136.11,208.678 2135.95,225.706ZM2125.81,215.561C2123.82,204.501 2118.59,195.51 2110.11,188.587C2101.64,181.664 2091.55,178.203 2079.86,178.203C2068.16,178.203 2058.09,181.625 2049.66,188.468C2041.23,195.311 2035.97,204.342 2033.9,215.561L2125.81,215.561Z" style="fill:rgb(39,39,42);fill-rule:nonzero;"/>
        <path d="M2182.74,171.639L2182.74,181.784C2191.26,172.633 2199.81,168.058 2208.4,168.058C2213.57,168.058 2218.11,169.431 2222.01,172.176C2225.91,174.921 2229.17,179.078 2231.8,184.648C2236.25,179.078 2240.77,174.921 2245.34,172.176C2249.92,169.431 2254.51,168.058 2259.13,168.058C2266.37,168.058 2272.14,170.405 2276.43,175.1C2282.08,181.147 2284.91,187.751 2284.91,194.913L2284.91,264.974L2293.38,264.974C2295.77,264.974 2297.48,265.432 2298.51,266.347C2299.55,267.262 2300.07,268.475 2300.07,269.987C2300.07,271.419 2299.55,272.613 2298.51,273.568C2297.48,274.523 2295.77,275 2293.38,275L2274.88,275L2274.88,195.868C2274.88,190.775 2273.33,186.558 2270.23,183.216C2267.12,179.874 2263.54,178.203 2259.49,178.203C2255.83,178.203 2251.97,179.576 2247.91,182.321C2243.85,185.066 2239.24,190.457 2234.06,198.493L2234.06,264.974L2242.42,264.974C2244.8,264.974 2246.52,265.432 2247.55,266.347C2248.59,267.262 2249.1,268.475 2249.1,269.987C2249.1,271.419 2248.59,272.613 2247.55,273.568C2246.52,274.523 2244.8,275 2242.42,275L2223.92,275L2223.92,196.584C2223.92,191.253 2222.35,186.856 2219.2,183.395C2216.06,179.934 2212.54,178.203 2208.64,178.203C2205.06,178.203 2201.52,179.357 2198.02,181.664C2193.16,184.927 2188.07,190.536 2182.74,198.493L2182.74,264.974L2191.22,264.974C2193.6,264.974 2195.31,265.432 2196.35,266.347C2197.38,267.262 2197.9,268.475 2197.9,269.987C2197.9,271.419 2197.38,272.613 2196.35,273.568C2195.31,274.523 2193.6,275 2191.22,275L2164.24,275C2161.85,275 2160.14,274.523 2159.11,273.568C2158.07,272.613 2157.56,271.419 2157.56,269.987C2157.56,268.475 2158.07,267.262 2159.11,266.347C2160.14,265.432 2161.85,264.974 2164.24,264.974L2172.72,264.974L2172.72,181.784L2164.24,181.784C2161.85,181.784 2160.14,181.306 2159.11,180.351C2158.07,179.397 2157.56,178.163 2157.56,176.651C2157.56,175.219 2158.07,174.026 2159.11,173.071C2160.14,172.116 2161.85,171.639 2164.24,171.639L2182.74,171.639Z" style="fill:rgb(39,39,42);fill-rule:nonzero;"/>
        <path d="M2429.33,225.706L2327.16,225.706C2328.91,238.676 2334.34,249.12 2343.45,257.037C2352.56,264.954 2363.84,268.913 2377.29,268.913C2384.77,268.913 2392.61,267.68 2400.8,265.213C2409,262.746 2415.68,259.484 2420.85,255.426C2422.37,254.232 2423.68,253.635 2424.79,253.635C2426.07,253.635 2427.18,254.133 2428.14,255.127C2429.09,256.122 2429.57,257.296 2429.57,258.648C2429.57,260.001 2428.93,261.314 2427.66,262.587C2423.84,266.566 2417.05,270.285 2407.31,273.747C2397.56,277.208 2387.55,278.939 2377.29,278.939C2360.1,278.939 2345.76,273.309 2334.26,262.05C2322.76,250.791 2317.01,237.164 2317.01,221.171C2317.01,206.61 2322.41,194.117 2333.19,183.693C2343.97,173.27 2357.32,168.058 2373.23,168.058C2389.62,168.058 2403.11,173.409 2413.69,184.111C2424.28,194.813 2429.49,208.678 2429.33,225.706ZM2419.18,215.561C2417.19,204.501 2411.96,195.51 2403.49,188.587C2395.01,181.664 2384.93,178.203 2373.23,178.203C2361.53,178.203 2351.47,181.625 2343.03,188.468C2334.6,195.311 2329.35,204.342 2327.28,215.561L2419.18,215.561Z" style="fill:rgb(39,39,42);fill-rule:nonzero;"/>
        <path d="M2489.36,171.639L2489.36,186.797C2496.37,179.715 2502.69,174.821 2508.34,172.116C2513.99,169.411 2520.36,168.058 2527.44,168.058C2535.08,168.058 2542.04,169.689 2548.33,172.951C2552.78,175.339 2556.82,179.297 2560.44,184.827C2564.06,190.357 2565.87,196.027 2565.87,201.835L2565.87,264.974L2574.35,264.974C2576.73,264.974 2578.44,265.432 2579.48,266.347C2580.51,267.262 2581.03,268.475 2581.03,269.987C2581.03,271.419 2580.51,272.613 2579.48,273.568C2578.44,274.523 2576.73,275 2574.35,275L2547.49,275C2545.02,275 2543.27,274.523 2542.24,273.568C2541.2,272.613 2540.69,271.419 2540.69,269.987C2540.69,268.475 2541.2,267.262 2542.24,266.347C2543.27,265.432 2545.02,264.974 2547.49,264.974L2555.85,264.974L2555.85,203.506C2555.85,196.425 2553.26,190.437 2548.09,185.543C2542.91,180.65 2535.99,178.203 2527.32,178.203C2520.71,178.203 2514.99,179.536 2510.13,182.201C2505.28,184.867 2498.36,191.491 2489.36,202.074L2489.36,264.974L2500.7,264.974C2503.09,264.974 2504.8,265.432 2505.84,266.347C2506.87,267.262 2507.39,268.475 2507.39,269.987C2507.39,271.419 2506.87,272.613 2505.84,273.568C2504.8,274.523 2503.09,275 2500.7,275L2468,275C2465.61,275 2463.9,274.523 2462.87,273.568C2461.83,272.613 2461.32,271.419 2461.32,269.987C2461.32,268.475 2461.83,267.262 2462.87,266.347C2463.9,265.432 2465.61,264.974 2468,264.974L2479.34,264.974L2479.34,181.784L2470.86,181.784C2468.48,181.784 2466.77,181.306 2465.73,180.351C2464.7,179.397 2464.18,178.163 2464.18,176.651C2464.18,175.219 2464.7,174.026 2465.73,173.071C2466.77,172.116 2468.48,171.639 2470.86,171.639L2489.36,171.639Z" style="fill:rgb(39,39,42);fill-rule:nonzero;"/>
        <path d="M2647.87,171.639L2702.29,171.639C2704.68,171.639 2706.39,172.116 2707.43,173.071C2708.46,174.026 2708.98,175.259 2708.98,176.771C2708.98,178.203 2708.46,179.397 2707.43,180.351C2706.39,181.306 2704.68,181.784 2702.29,181.784L2647.87,181.784L2647.87,248.503C2647.87,254.312 2650.2,259.166 2654.85,263.065C2659.5,266.963 2666.33,268.913 2675.32,268.913C2682.08,268.913 2689.4,267.898 2697.28,265.869C2705.16,263.84 2711.28,261.553 2715.66,259.006C2717.25,257.972 2718.57,257.455 2719.6,257.455C2720.87,257.455 2721.99,257.952 2722.94,258.947C2723.9,259.941 2724.37,261.115 2724.37,262.468C2724.37,263.661 2723.86,264.775 2722.82,265.81C2720.28,268.435 2714.09,271.28 2704.26,274.344C2694.44,277.407 2685.03,278.939 2676.03,278.939C2664.34,278.939 2655.03,276.194 2648.11,270.703C2641.18,265.213 2637.72,257.813 2637.72,248.503L2637.72,181.784L2619.22,181.784C2616.84,181.784 2615.12,181.306 2614.09,180.351C2613.05,179.397 2612.54,178.163 2612.54,176.651C2612.54,175.219 2613.05,174.026 2614.09,173.071C2615.12,172.116 2616.84,171.639 2619.22,171.639L2637.72,171.639L2637.72,142.039C2637.72,139.651 2638.2,137.941 2639.15,136.906C2640.11,135.872 2641.3,135.355 2642.74,135.355C2644.25,135.355 2645.48,135.872 2646.43,136.906C2647.39,137.941 2647.87,139.651 2647.87,142.039L2647.87,171.639Z" style="fill:rgb(39,39,42);fill-rule:nonzero;"/>
        <path d="M2848.26,178.203C2848.26,175.896 2848.74,174.225 2849.7,173.19C2850.65,172.156 2851.85,171.639 2853.28,171.639C2854.79,171.639 2856.02,172.156 2856.98,173.19C2857.93,174.225 2858.41,175.975 2858.41,178.442L2858.41,195.629C2858.41,198.016 2857.93,199.727 2856.98,200.761C2856.02,201.796 2854.79,202.313 2853.28,202.313C2851.93,202.313 2850.79,201.875 2849.88,201C2848.96,200.125 2848.42,198.692 2848.26,196.703C2847.79,191.929 2845.32,187.99 2840.86,184.887C2834.34,180.431 2825.71,178.203 2814.96,178.203C2803.74,178.203 2795.03,180.471 2788.83,185.006C2784.13,188.428 2781.78,192.247 2781.78,196.464C2781.78,201.239 2784.57,205.217 2790.14,208.4C2793.96,210.628 2801.2,212.339 2811.86,213.532C2825.79,215.044 2835.45,216.755 2840.86,218.664C2848.58,221.449 2854.33,225.309 2858.11,230.242C2861.89,235.175 2863.78,240.506 2863.78,246.235C2863.78,254.749 2859.68,262.328 2851.49,268.973C2843.29,275.617 2831.28,278.939 2815.44,278.939C2799.61,278.939 2786.64,274.92 2776.53,266.884C2776.53,269.589 2776.37,271.34 2776.05,272.135C2775.74,272.931 2775.16,273.608 2774.32,274.165C2773.49,274.722 2772.55,275 2771.52,275C2770.09,275 2768.89,274.483 2767.94,273.448C2766.98,272.414 2766.51,270.703 2766.51,268.316L2766.51,247.668C2766.51,245.281 2766.96,243.57 2767.88,242.535C2768.79,241.501 2770.01,240.984 2771.52,240.984C2772.95,240.984 2774.16,241.481 2775.16,242.476C2776.15,243.47 2776.65,244.803 2776.65,246.474C2776.65,250.134 2777.57,253.198 2779.4,255.664C2782.18,259.484 2786.62,262.647 2792.7,265.153C2798.79,267.66 2806.25,268.913 2815.08,268.913C2828.13,268.913 2837.84,266.486 2844.21,261.632C2850.57,256.778 2853.76,251.646 2853.76,246.235C2853.76,240.029 2850.53,235.056 2844.09,231.316C2837.56,227.576 2828.07,225.07 2815.62,223.797C2803.17,222.524 2794.24,220.853 2788.83,218.784C2783.41,216.715 2779.2,213.612 2776.17,209.474C2773.15,205.336 2771.64,200.881 2771.64,196.106C2771.64,187.513 2775.86,180.69 2784.29,175.637C2792.72,170.584 2802.79,168.058 2814.49,168.058C2828.33,168.058 2839.59,171.44 2848.26,178.203Z" style="fill:rgb(39,39,42);fill-rule:nonzero;"/>
    </g>
</svg>
