<?xml version="1.0" encoding="UTF-8" standalone="no"?>
<!DOCTYPE svg PUBLIC "-//W3C//DTD SVG 1.1//EN" "http://www.w3.org/Graphics/SVG/1.1/DTD/svg11.dtd">
<svg width="100%" height="100%" viewBox="0 0 2000 400" version="1.1" xmlns="http://www.w3.org/2000/svg" xmlns:xlink="http://www.w3.org/1999/xlink" xml:space="preserve" xmlns:serif="http://www.serif.com/" style="fill-rule:evenodd;clip-rule:evenodd;stroke-linejoin:round;stroke-miterlimit:2;">
    <g id="v2" transform="matrix(74.0741,0,0,18.1818,-2666.67,-36.3636)">
        <rect x="36" y="2" width="27" height="22" style="fill:white;"/>
        <g transform="matrix(1.01124,0,0,2.99317,73.7697,-16.9317)">
            <g transform="matrix(0.0156389,0,0,0.0156389,-34.1238,5.58707)">
                <path d="M107.779,264.395C108.198,261.205 108.122,251.808 110.858,248.998C132.296,226.979 240.884,181.004 246.351,239.759C252.59,306.808 167.895,391.41 110.858,413.745C-18.45,464.38 -7.599,377.005 40.032,330.601C141.713,231.54 258.669,264.243 258.669,310.585" style="fill:none;stroke:black;stroke-width:9.77px;stroke-linecap:round;stroke-miterlimit:1.5;"/>
            </g>
            <g transform="matrix(0.0156389,0,0,0.0156389,-34.9086,5.58707)">
                <path d="M337.193,282.871C336.167,278.765 335.452,274.568 334.114,270.553C333.789,269.58 330.872,318.194 366.447,309.046C385.472,304.153 395.08,277.946 412.638,272.093C429.09,266.609 440.046,286.459 457.289,281.331C489.69,271.696 501.285,247.401 538.893,255.156C577.93,263.206 562.534,323.494 510.948,314.897C476.216,309.108 517.734,263.574 526.157,254.3C610.794,161.108 741.6,105.612 754.451,151.997C778.125,237.451 598.372,420.261 563.528,372.173" style="fill:none;stroke:black;stroke-width:9.77px;stroke-linecap:round;stroke-miterlimit:1.5;"/>
            </g>
            <g transform="matrix(0.0156389,0,0,0.0156389,-34.9086,5.58707)">
                <path d="M702.101,242.839C824.142,268.744 748.292,319.163 748.292,307.506" style="fill:none;stroke:black;stroke-width:9.77px;stroke-linecap:round;stroke-miterlimit:1.5;"/>
            </g>
            <g transform="matrix(0.0156389,0,0,0.0156389,-34.9086,5.58707)">
                <path d="M796.022,269.014C827.46,263.508 799.165,309.069 812.959,301.347C926.268,237.924 832.29,341.325 1040.87,282.558C1073.35,273.405 1031.34,254.241 1031.09,262.225C1029.41,315.084 1300.63,309.597 1326,309.228C1338.91,309.04 1342.27,300.863 1330.62,295.37" style="fill:none;stroke:black;stroke-width:9.77px;stroke-linecap:round;stroke-miterlimit:1.5;"/>
            </g>
        </g>
        <g transform="matrix(0.0135,0,0,0.055,37.3258,2.29288)">
            <text x="1193px" y="319px" style="font-family:'CourierNewPSMT', 'Courier New', monospace;font-size:41.881px;stroke:black;stroke-width:1.02px;">k<tspan x="1226.51px 1260.02px 1293.53px 1327.04px 1360.55px 1394.06px 1427.56px 1461.07px 1494.58px 1528.09px 1561.6px 1595.11px 1628.62px " y="319px 319px 319px 319px 319px 319px 319px 319px 319px 319px 319px 319px 319px ">izhakkinedath</tspan></text>
        </g>
    </g>
</svg>
